<svg width="236" height="136" viewBox="0 0 236 136" fill="none" xmlns="http://www.w3.org/2000/svg">
<path d="M12 5C12 2.79086 13.7909 1 16 1H44C46.2091 1 48 2.79086 48 5V9C48 11.2091 46.2091 13 44 13H16C13.7909 13 12 11.2091 12 9V5Z" fill="#D0EBFF" stroke="#063455"/>
<path d="M56 5C56 2.79086 57.7909 1 60 1H88C90.2091 1 92 2.79086 92 5V9C92 11.2091 90.2091 13 88 13H60C57.7909 13 56 11.2091 56 9V5Z" fill="#D0EBFF" stroke="#063455"/>
<path d="M100 5C100 2.79086 101.791 1 104 1H132C134.209 1 136 2.79086 136 5V9C136 11.2091 134.209 13 132 13H104C101.791 13 100 11.2091 100 9V5Z" fill="#D0EBFF" stroke="#063455"/>
<path d="M144 5C144 2.79086 145.791 1 148 1H176C178.209 1 180 2.79086 180 5V9C180 11.2091 178.209 13 176 13H148C145.791 13 144 11.2091 144 9V5Z" fill="#D0EBFF" stroke="#063455"/>
<path d="M188 5C188 2.79086 189.791 1 192 1H220C222.209 1 224 2.79086 224 5V9C224 11.2091 222.209 13 220 13H192C189.791 13 188 11.2091 188 9V5Z" fill="#D0EBFF" stroke="#063455"/>
<path d="M0.5 23C0.5 21.067 2.067 19.5 4 19.5H232C233.933 19.5 235.5 21.067 235.5 23V113C235.5 114.933 233.933 116.5 232 116.5H4.00001C2.06701 116.5 0.5 114.933 0.5 113V23Z" fill="#D0EBFF"/>
<path d="M0.5 23C0.5 21.067 2.067 19.5 4 19.5H232C233.933 19.5 235.5 21.067 235.5 23V113C235.5 114.933 233.933 116.5 232 116.5H4.00001C2.06701 116.5 0.5 114.933 0.5 113V23Z" stroke="#063455"/>
<path d="M15.304 46V37.348H12.406V36.2H19.616V37.348H16.704V46H15.304ZM22.5737 46V37.782L20.8657 38.216V37.166L23.0917 36.2H24.0017V46H22.5737ZM30.0375 46.168C29.3188 46.168 28.7121 46.0373 28.2175 45.776C27.7321 45.5053 27.3401 45.146 27.0415 44.698C26.7428 44.2407 26.5235 43.7367 26.3835 43.186C26.2528 42.626 26.1875 42.052 26.1875 41.464C26.1875 40.3813 26.3368 39.434 26.6355 38.622C26.9435 37.81 27.3821 37.1753 27.9515 36.718C28.5208 36.2607 29.2068 36.032 30.0095 36.032C30.6535 36.032 31.1995 36.158 31.6475 36.41C32.1048 36.6527 32.4595 36.9793 32.7115 37.39C32.9728 37.8007 33.1315 38.2533 33.1875 38.748H31.8855C31.8015 38.2627 31.5915 37.8893 31.2555 37.628C30.9288 37.3573 30.5088 37.222 29.9955 37.222C29.5381 37.222 29.1275 37.3667 28.7635 37.656C28.3995 37.936 28.1101 38.3653 27.8955 38.944C27.6901 39.5227 27.5735 40.2553 27.5455 41.142C27.5455 41.1513 27.5455 41.1653 27.5455 41.184C27.5455 41.2027 27.5455 41.2213 27.5455 41.24C27.6855 40.96 27.8861 40.7033 28.1475 40.47C28.4088 40.2367 28.7168 40.0547 29.0715 39.924C29.4355 39.784 29.8275 39.714 30.2475 39.714C30.7981 39.714 31.3115 39.8447 31.7875 40.106C32.2728 40.358 32.6648 40.722 32.9635 41.198C33.2621 41.674 33.4115 42.2293 33.4115 42.864C33.4115 43.4333 33.2715 43.97 32.9915 44.474C32.7208 44.978 32.3335 45.3887 31.8295 45.706C31.3255 46.014 30.7281 46.168 30.0375 46.168ZM29.9395 44.95C30.3408 44.95 30.6955 44.866 31.0035 44.698C31.3208 44.5207 31.5681 44.278 31.7455 43.97C31.9321 43.662 32.0255 43.312 32.0255 42.92C32.0255 42.5187 31.9321 42.1687 31.7455 41.87C31.5681 41.562 31.3208 41.324 31.0035 41.156C30.6955 40.988 30.3408 40.904 29.9395 40.904C29.5381 40.904 29.1788 40.9973 28.8615 41.184C28.5441 41.3613 28.2921 41.604 28.1055 41.912C27.9188 42.2107 27.8255 42.5513 27.8255 42.934C27.8255 43.326 27.9188 43.676 28.1055 43.984C28.2921 44.2827 28.5441 44.5207 28.8615 44.698C29.1881 44.866 29.5475 44.95 29.9395 44.95Z" fill="#FFA90B"/>
<path d="M17.184 101L18.924 92.456H20.052L18.324 101H17.184ZM13.692 101L15.432 92.456H16.56L14.832 101H13.692ZM12.504 98.732V97.664H20.628V98.732H12.504ZM13.032 95.768V94.712H21.168V95.768H13.032ZM22.9511 101V92.6H25.7951C26.4591 92.6 27.0031 92.712 27.4271 92.936C27.8511 93.16 28.1631 93.46 28.3631 93.836C28.5711 94.204 28.6751 94.624 28.6751 95.096C28.6751 95.544 28.5711 95.96 28.3631 96.344C28.1631 96.72 27.8471 97.024 27.4151 97.256C26.9831 97.48 26.4311 97.592 25.7591 97.592H24.1511V101H22.9511ZM27.3671 101L25.5551 97.268H26.8751L28.7591 101H27.3671ZM24.1511 96.68H25.7231C26.3151 96.68 26.7471 96.536 27.0191 96.248C27.2991 95.952 27.4391 95.576 27.4391 95.12C27.4391 94.656 27.3031 94.288 27.0311 94.016C26.7591 93.744 26.3191 93.608 25.7111 93.608H24.1511V96.68ZM33.3599 101.144C32.7519 101.144 32.2159 101.036 31.7519 100.82C31.2879 100.596 30.9279 100.284 30.6719 99.884C30.4159 99.484 30.2839 99.016 30.2759 98.48H31.5479C31.5479 98.784 31.6159 99.064 31.7519 99.32C31.8959 99.568 32.0999 99.768 32.3639 99.92C32.6359 100.064 32.9679 100.136 33.3599 100.136C33.6959 100.136 33.9839 100.08 34.2239 99.968C34.4719 99.856 34.6599 99.704 34.7879 99.512C34.9159 99.312 34.9799 99.084 34.9799 98.828C34.9799 98.54 34.9159 98.304 34.7879 98.12C34.6599 97.928 34.4799 97.768 34.2479 97.64C34.0239 97.512 33.7639 97.4 33.4679 97.304C33.1799 97.208 32.8679 97.104 32.5319 96.992C31.8519 96.768 31.3479 96.484 31.0199 96.14C30.6999 95.796 30.5399 95.348 30.5399 94.796C30.5399 94.324 30.6479 93.916 30.8639 93.572C31.0879 93.22 31.4039 92.948 31.8119 92.756C32.2199 92.556 32.6959 92.456 33.2399 92.456C33.7919 92.456 34.2679 92.556 34.6679 92.756C35.0759 92.956 35.3959 93.232 35.6279 93.584C35.8599 93.936 35.9799 94.348 35.9879 94.82H34.7159C34.7159 94.604 34.6559 94.392 34.5359 94.184C34.4239 93.976 34.2559 93.808 34.0319 93.68C33.8159 93.544 33.5439 93.476 33.2159 93.476C32.9359 93.468 32.6879 93.512 32.4719 93.608C32.2559 93.704 32.0879 93.844 31.9679 94.028C31.8479 94.212 31.7879 94.432 31.7879 94.688C31.7879 94.944 31.8439 95.152 31.9559 95.312C32.0679 95.464 32.2239 95.596 32.4239 95.708C32.6319 95.82 32.8759 95.924 33.1559 96.02C33.4359 96.108 33.7439 96.208 34.0799 96.32C34.4879 96.456 34.8559 96.624 35.1839 96.824C35.5119 97.016 35.7679 97.268 35.9519 97.58C36.1439 97.884 36.2399 98.276 36.2399 98.756C36.2399 99.172 36.1319 99.56 35.9159 99.92C35.6999 100.28 35.3799 100.576 34.9559 100.808C34.5319 101.032 33.9999 101.144 33.3599 101.144ZM40.2997 101L37.1677 92.6H38.4637L41.0197 99.752L43.5877 92.6H44.8597L41.7277 101H40.2997ZM49.0903 101.144C48.3623 101.144 47.7343 100.964 47.2063 100.604C46.6863 100.236 46.2863 99.728 46.0063 99.08C45.7263 98.424 45.5863 97.664 45.5863 96.8C45.5863 95.936 45.7263 95.18 46.0063 94.532C46.2863 93.876 46.6863 93.368 47.2063 93.008C47.7343 92.64 48.3623 92.456 49.0903 92.456C49.8263 92.456 50.4503 92.64 50.9623 93.008C51.4823 93.368 51.8823 93.876 52.1623 94.532C52.4503 95.18 52.5943 95.936 52.5943 96.8C52.5943 97.664 52.4503 98.424 52.1623 99.08C51.8823 99.728 51.4823 100.236 50.9623 100.604C50.4503 100.964 49.8263 101.144 49.0903 101.144ZM49.0903 100.076C49.5303 100.076 49.9183 99.944 50.2543 99.68C50.5983 99.416 50.8663 99.04 51.0583 98.552C51.2583 98.064 51.3583 97.48 51.3583 96.8C51.3583 96.112 51.2583 95.528 51.0583 95.048C50.8663 94.56 50.5983 94.188 50.2543 93.932C49.9183 93.668 49.5303 93.536 49.0903 93.536C48.6503 93.536 48.2583 93.668 47.9143 93.932C47.5703 94.188 47.2983 94.56 47.0983 95.048C46.9063 95.528 46.8103 96.112 46.8103 96.8C46.8103 97.48 46.9063 98.064 47.0983 98.552C47.2983 99.04 47.5703 99.416 47.9143 99.68C48.2583 99.944 48.6503 100.076 49.0903 100.076ZM55.4948 101V93.956L53.9228 94.412V93.476L55.9388 92.6H56.7188V101H55.4948ZM58.6847 101V100.136C59.2527 99.704 59.7887 99.268 60.2927 98.828C60.8047 98.388 61.2607 97.952 61.6607 97.52C62.0607 97.08 62.3727 96.652 62.5967 96.236C62.8287 95.812 62.9447 95.408 62.9447 95.024C62.9447 94.752 62.8927 94.5 62.7887 94.268C62.6927 94.036 62.5367 93.848 62.3207 93.704C62.1127 93.552 61.8287 93.476 61.4687 93.476C61.1167 93.476 60.8247 93.552 60.5927 93.704C60.3607 93.856 60.1847 94.06 60.0647 94.316C59.9527 94.564 59.8967 94.84 59.8967 95.144H58.7327C58.7407 94.568 58.8647 94.08 59.1047 93.68C59.3447 93.28 59.6727 92.976 60.0887 92.768C60.5047 92.56 60.9727 92.456 61.4927 92.456C62.0287 92.456 62.4927 92.556 62.8847 92.756C63.2767 92.948 63.5847 93.232 63.8087 93.608C64.0327 93.984 64.1447 94.436 64.1447 94.964C64.1447 95.348 64.0647 95.732 63.9047 96.116C63.7527 96.492 63.5447 96.86 63.2807 97.22C63.0167 97.58 62.7207 97.928 62.3927 98.264C62.0727 98.592 61.7407 98.904 61.3967 99.2C61.0527 99.496 60.7247 99.764 60.4127 100.004H64.3967V101H58.6847Z" fill="#121212"/>
<path d="M131.646 101L134.742 92.6H135.81L138.894 101H137.814L135.27 93.86L132.702 101H131.646ZM133.062 98.84L133.35 98.024H137.154L137.442 98.84H133.062ZM140.454 101V92.36H141.462V95.864C141.67 95.504 141.954 95.22 142.314 95.012C142.674 94.804 143.066 94.7 143.49 94.7C143.97 94.7 144.378 94.792 144.714 94.976C145.058 95.16 145.322 95.444 145.506 95.828C145.69 96.204 145.782 96.68 145.782 97.256V101H144.786V97.364C144.786 96.772 144.654 96.324 144.39 96.02C144.126 95.716 143.754 95.564 143.274 95.564C142.946 95.564 142.642 95.648 142.362 95.816C142.09 95.976 141.87 96.212 141.702 96.524C141.542 96.828 141.462 97.204 141.462 97.652V101H140.454ZM147.752 101V94.844H148.664L148.724 95.708C148.916 95.396 149.172 95.152 149.492 94.976C149.82 94.792 150.172 94.7 150.548 94.7C150.86 94.7 151.14 94.744 151.388 94.832C151.636 94.912 151.852 95.04 152.036 95.216C152.228 95.384 152.384 95.6 152.504 95.864C152.712 95.488 152.996 95.2 153.356 95C153.716 94.8 154.1 94.7 154.508 94.7C154.972 94.7 155.372 94.792 155.708 94.976C156.052 95.16 156.316 95.44 156.5 95.816C156.692 96.192 156.788 96.664 156.788 97.232V101H155.792V97.34C155.792 96.748 155.668 96.304 155.42 96.008C155.172 95.712 154.824 95.564 154.376 95.564C154.08 95.564 153.808 95.644 153.56 95.804C153.32 95.964 153.128 96.2 152.984 96.512C152.84 96.816 152.768 97.188 152.768 97.628V101H151.76V97.34C151.76 96.748 151.636 96.304 151.388 96.008C151.14 95.712 150.8 95.564 150.368 95.564C150.072 95.564 149.8 95.644 149.552 95.804C149.312 95.964 149.12 96.2 148.976 96.512C148.832 96.816 148.76 97.188 148.76 97.628V101H147.752ZM160.721 101.144C160.233 101.144 159.825 101.056 159.497 100.88C159.177 100.704 158.937 100.472 158.777 100.184C158.617 99.896 158.537 99.58 158.537 99.236C158.537 98.828 158.641 98.48 158.849 98.192C159.065 97.904 159.365 97.688 159.749 97.544C160.133 97.392 160.585 97.316 161.105 97.316H162.689C162.689 96.924 162.637 96.6 162.533 96.344C162.429 96.08 162.265 95.884 162.041 95.756C161.825 95.62 161.549 95.552 161.213 95.552C160.837 95.552 160.513 95.648 160.241 95.84C159.969 96.024 159.801 96.3 159.737 96.668H158.705C158.753 96.244 158.897 95.888 159.137 95.6C159.377 95.304 159.681 95.08 160.049 94.928C160.417 94.776 160.805 94.7 161.213 94.7C161.773 94.7 162.237 94.804 162.605 95.012C162.973 95.212 163.245 95.496 163.421 95.864C163.605 96.224 163.697 96.652 163.697 97.148V101H162.797L162.737 99.92C162.657 100.088 162.553 100.248 162.425 100.4C162.305 100.544 162.161 100.672 161.993 100.784C161.833 100.896 161.645 100.984 161.429 101.048C161.213 101.112 160.977 101.144 160.721 101.144ZM160.865 100.292C161.137 100.292 161.385 100.232 161.609 100.112C161.841 99.992 162.037 99.832 162.197 99.632C162.357 99.432 162.477 99.208 162.557 98.96C162.645 98.704 162.689 98.44 162.689 98.168V98.096H161.189C160.805 98.096 160.493 98.144 160.253 98.24C160.021 98.328 159.853 98.456 159.749 98.624C159.645 98.792 159.593 98.98 159.593 99.188C159.593 99.412 159.641 99.608 159.737 99.776C159.833 99.936 159.977 100.064 160.169 100.16C160.361 100.248 160.593 100.292 160.865 100.292ZM165.663 101V94.844H166.575L166.635 95.876C166.819 95.508 167.087 95.22 167.439 95.012C167.791 94.804 168.195 94.7 168.651 94.7C169.123 94.7 169.531 94.792 169.875 94.976C170.219 95.16 170.487 95.44 170.679 95.816C170.871 96.184 170.967 96.652 170.967 97.22V101H169.959V97.328C169.959 96.744 169.823 96.304 169.551 96.008C169.279 95.712 168.903 95.564 168.423 95.564C168.103 95.564 167.807 95.644 167.535 95.804C167.271 95.964 167.059 96.196 166.899 96.5C166.747 96.796 166.671 97.164 166.671 97.604V101H165.663ZM176.557 101V92.6H177.733L180.649 98.492L183.565 92.6H184.753V101H183.745V94.412L181.033 99.848H180.277L177.565 94.436V101H176.557ZM188.844 101.144C188.356 101.144 187.948 101.056 187.62 100.88C187.3 100.704 187.06 100.472 186.9 100.184C186.74 99.896 186.66 99.58 186.66 99.236C186.66 98.828 186.764 98.48 186.972 98.192C187.188 97.904 187.488 97.688 187.872 97.544C188.256 97.392 188.708 97.316 189.228 97.316H190.812C190.812 96.924 190.76 96.6 190.656 96.344C190.552 96.08 190.388 95.884 190.164 95.756C189.948 95.62 189.672 95.552 189.336 95.552C188.96 95.552 188.636 95.648 188.364 95.84C188.092 96.024 187.924 96.3 187.86 96.668H186.828C186.876 96.244 187.02 95.888 187.26 95.6C187.5 95.304 187.804 95.08 188.172 94.928C188.54 94.776 188.928 94.7 189.336 94.7C189.896 94.7 190.36 94.804 190.728 95.012C191.096 95.212 191.368 95.496 191.544 95.864C191.728 96.224 191.82 96.652 191.82 97.148V101H190.92L190.86 99.92C190.78 100.088 190.676 100.248 190.548 100.4C190.428 100.544 190.284 100.672 190.116 100.784C189.956 100.896 189.768 100.984 189.552 101.048C189.336 101.112 189.1 101.144 188.844 101.144ZM188.988 100.292C189.26 100.292 189.508 100.232 189.732 100.112C189.964 99.992 190.16 99.832 190.32 99.632C190.48 99.432 190.6 99.208 190.68 98.96C190.768 98.704 190.812 98.44 190.812 98.168V98.096H189.312C188.928 98.096 188.616 98.144 188.376 98.24C188.144 98.328 187.976 98.456 187.872 98.624C187.768 98.792 187.716 98.98 187.716 99.188C187.716 99.412 187.764 99.608 187.86 99.776C187.956 99.936 188.1 100.064 188.292 100.16C188.484 100.248 188.716 100.292 188.988 100.292ZM196.019 101.144C195.555 101.144 195.147 101.056 194.795 100.88C194.451 100.696 194.183 100.416 193.991 100.04C193.807 99.664 193.715 99.192 193.715 98.624V94.844H194.723V98.516C194.723 99.108 194.855 99.552 195.119 99.848C195.391 100.136 195.763 100.28 196.235 100.28C196.571 100.28 196.871 100.204 197.135 100.052C197.399 99.892 197.607 99.66 197.759 99.356C197.919 99.052 197.999 98.684 197.999 98.252V94.844H199.007V101H198.095L198.035 99.968C197.851 100.336 197.583 100.624 197.231 100.832C196.879 101.04 196.475 101.144 196.019 101.144ZM201.049 101V92.36H202.057V101H201.049ZM206.073 101.144C205.585 101.144 205.177 101.056 204.849 100.88C204.529 100.704 204.289 100.472 204.129 100.184C203.969 99.896 203.889 99.58 203.889 99.236C203.889 98.828 203.993 98.48 204.201 98.192C204.417 97.904 204.717 97.688 205.101 97.544C205.485 97.392 205.937 97.316 206.457 97.316H208.041C208.041 96.924 207.989 96.6 207.885 96.344C207.781 96.08 207.617 95.884 207.393 95.756C207.177 95.62 206.901 95.552 206.565 95.552C206.189 95.552 205.865 95.648 205.593 95.84C205.321 96.024 205.153 96.3 205.089 96.668H204.057C204.105 96.244 204.249 95.888 204.489 95.6C204.729 95.304 205.033 95.08 205.401 94.928C205.769 94.776 206.157 94.7 206.565 94.7C207.125 94.7 207.589 94.804 207.957 95.012C208.325 95.212 208.597 95.496 208.773 95.864C208.957 96.224 209.049 96.652 209.049 97.148V101H208.149L208.089 99.92C208.009 100.088 207.905 100.248 207.777 100.4C207.657 100.544 207.513 100.672 207.345 100.784C207.185 100.896 206.997 100.984 206.781 101.048C206.565 101.112 206.329 101.144 206.073 101.144ZM206.217 100.292C206.489 100.292 206.737 100.232 206.961 100.112C207.193 99.992 207.389 99.832 207.549 99.632C207.709 99.432 207.829 99.208 207.909 98.96C207.997 98.704 208.041 98.44 208.041 98.168V98.096H206.541C206.157 98.096 205.845 98.144 205.605 98.24C205.373 98.328 205.205 98.456 205.101 98.624C204.997 98.792 204.945 98.98 204.945 99.188C204.945 99.412 204.993 99.608 205.089 99.776C205.185 99.936 205.329 100.064 205.521 100.16C205.713 100.248 205.945 100.292 206.217 100.292ZM211.015 101V94.844H211.927L211.987 95.876C212.171 95.508 212.439 95.22 212.791 95.012C213.143 94.804 213.547 94.7 214.003 94.7C214.475 94.7 214.883 94.792 215.227 94.976C215.571 95.16 215.839 95.44 216.031 95.816C216.223 96.184 216.319 96.652 216.319 97.22V101H215.311V97.328C215.311 96.744 215.175 96.304 214.903 96.008C214.631 95.712 214.255 95.564 213.775 95.564C213.455 95.564 213.159 95.644 212.887 95.804C212.623 95.964 212.411 96.196 212.251 96.5C212.099 96.796 212.023 97.164 212.023 97.604V101H211.015ZM220.258 101.144C219.77 101.144 219.362 101.056 219.034 100.88C218.714 100.704 218.474 100.472 218.314 100.184C218.154 99.896 218.074 99.58 218.074 99.236C218.074 98.828 218.178 98.48 218.386 98.192C218.602 97.904 218.902 97.688 219.286 97.544C219.67 97.392 220.122 97.316 220.642 97.316H222.226C222.226 96.924 222.174 96.6 222.07 96.344C221.966 96.08 221.802 95.884 221.578 95.756C221.362 95.62 221.086 95.552 220.75 95.552C220.374 95.552 220.05 95.648 219.778 95.84C219.506 96.024 219.338 96.3 219.274 96.668H218.242C218.29 96.244 218.434 95.888 218.674 95.6C218.914 95.304 219.218 95.08 219.586 94.928C219.954 94.776 220.342 94.7 220.75 94.7C221.31 94.7 221.774 94.804 222.142 95.012C222.51 95.212 222.782 95.496 222.958 95.864C223.142 96.224 223.234 96.652 223.234 97.148V101H222.334L222.274 99.92C222.194 100.088 222.09 100.248 221.962 100.4C221.842 100.544 221.698 100.672 221.53 100.784C221.37 100.896 221.182 100.984 220.965 101.048C220.75 101.112 220.514 101.144 220.258 101.144ZM220.402 100.292C220.674 100.292 220.922 100.232 221.146 100.112C221.378 99.992 221.574 99.832 221.734 99.632C221.894 99.432 222.014 99.208 222.094 98.96C222.182 98.704 222.226 98.44 222.226 98.168V98.096H220.726C220.342 98.096 220.03 98.144 219.79 98.24C219.558 98.328 219.39 98.456 219.286 98.624C219.182 98.792 219.13 98.98 219.13 99.188C219.13 99.412 219.178 99.608 219.274 99.776C219.37 99.936 219.514 100.064 219.706 100.16C219.898 100.248 220.13 100.292 220.402 100.292Z" fill="#7F7F7F"/>
<path d="M12 127C12 124.791 13.7909 123 16 123H44C46.2091 123 48 124.791 48 127V131C48 133.209 46.2091 135 44 135H16C13.7909 135 12 133.209 12 131V127Z" fill="#D0EBFF" stroke="#063455"/>
<path d="M56 127C56 124.791 57.7909 123 60 123H88C90.2091 123 92 124.791 92 127V131C92 133.209 90.2091 135 88 135H60C57.7909 135 56 133.209 56 131V127Z" fill="#D0EBFF" stroke="#063455"/>
<path d="M100 127C100 124.791 101.791 123 104 123H132C134.209 123 136 124.791 136 127V131C136 133.209 134.209 135 132 135H104C101.791 135 100 133.209 100 131V127Z" fill="#D0EBFF" stroke="#063455"/>
<path d="M144 127C144 124.791 145.791 123 148 123H176C178.209 123 180 124.791 180 127V131C180 133.209 178.209 135 176 135H148C145.791 135 144 133.209 144 131V127Z" fill="#D0EBFF" stroke="#063455"/>
<path d="M188 127C188 124.791 189.791 123 192 123H220C222.209 123 224 124.791 224 127V131C224 133.209 222.209 135 220 135H192C189.791 135 188 133.209 188 131V127Z" fill="#D0EBFF" stroke="#063455"/>
</svg>
