<svg width="236" height="136" viewBox="0 0 236 136" fill="none" xmlns="http://www.w3.org/2000/svg">
<path d="M12 5C12 2.79086 13.7909 1 16 1H44C46.2091 1 48 2.79086 48 5V9C48 11.2091 46.2091 13 44 13H16C13.7909 13 12 11.2091 12 9V5Z" fill="white" stroke="#E3E3E3"/>
<path d="M56 5C56 2.79086 57.7909 1 60 1H88C90.2091 1 92 2.79086 92 5V9C92 11.2091 90.2091 13 88 13H60C57.7909 13 56 11.2091 56 9V5Z" fill="white" stroke="#E3E3E3"/>
<path d="M100 5C100 2.79086 101.791 1 104 1H132C134.209 1 136 2.79086 136 5V9C136 11.2091 134.209 13 132 13H104C101.791 13 100 11.2091 100 9V5Z" fill="white" stroke="#E3E3E3"/>
<path d="M144 5C144 2.79086 145.791 1 148 1H176C178.209 1 180 2.79086 180 5V9C180 11.2091 178.209 13 176 13H148C145.791 13 144 11.2091 144 9V5Z" fill="white" stroke="#E3E3E3"/>
<path d="M188 5C188 2.79086 189.791 1 192 1H220C222.209 1 224 2.79086 224 5V9C224 11.2091 222.209 13 220 13H192C189.791 13 188 11.2091 188 9V5Z" fill="white" stroke="#E3E3E3"/>
<path d="M0.5 23C0.5 21.067 2.067 19.5 4 19.5H232C233.933 19.5 235.5 21.067 235.5 23V113C235.5 114.933 233.933 116.5 232 116.5H4.00001C2.06701 116.5 0.5 114.933 0.5 113V23Z" fill="white"/>
<path d="M0.5 23C0.5 21.067 2.067 19.5 4 19.5H232C233.933 19.5 235.5 21.067 235.5 23V113C235.5 114.933 233.933 116.5 232 116.5H4.00001C2.06701 116.5 0.5 114.933 0.5 113V23Z" stroke="#E3E3E3"/>
<path d="M15.304 46V37.348H12.406V36.2H19.616V37.348H16.704V46H15.304ZM22.5737 46V37.782L20.8657 38.216V37.166L23.0917 36.2H24.0017V46H22.5737ZM27.5875 46V37.782L25.8795 38.216V37.166L28.1055 36.2H29.0155V46H27.5875Z" fill="#063455"/>
<path d="M12 127C12 124.791 13.7909 123 16 123H44C46.2091 123 48 124.791 48 127V131C48 133.209 46.2091 135 44 135H16C13.7909 135 12 133.209 12 131V127Z" fill="white" stroke="#E3E3E3"/>
<path d="M56 127C56 124.791 57.7909 123 60 123H88C90.2091 123 92 124.791 92 127V131C92 133.209 90.2091 135 88 135H60C57.7909 135 56 133.209 56 131V127Z" fill="white" stroke="#E3E3E3"/>
<path d="M100 127C100 124.791 101.791 123 104 123H132C134.209 123 136 124.791 136 127V131C136 133.209 134.209 135 132 135H104C101.791 135 100 133.209 100 131V127Z" fill="white" stroke="#E3E3E3"/>
<path d="M144 127C144 124.791 145.791 123 148 123H176C178.209 123 180 124.791 180 127V131C180 133.209 178.209 135 176 135H148C145.791 135 144 133.209 144 131V127Z" fill="white" stroke="#E3E3E3"/>
<path d="M188 127C188 124.791 189.791 123 192 123H220C222.209 123 224 124.791 224 127V131C224 133.209 222.209 135 220 135H192C189.791 135 188 133.209 188 131V127Z" fill="white" stroke="#E3E3E3"/>
</svg>
