<svg width="38" height="32" viewBox="0 0 38 32" fill="none" xmlns="http://www.w3.org/2000/svg">
<path d="M32.9722 21.6663H32.4289C32.522 21.1063 32.5841 20.5597 32.5841 19.9997C32.5841 14.493 28.1128 9.86635 22.1201 8.65302C22.3529 8.25302 22.4927 7.81301 22.4927 7.33301C22.4927 5.67967 20.9246 4.33301 18.9995 4.33301C17.0743 4.33301 15.5063 5.67967 15.5063 7.33301C15.5063 7.81301 15.646 8.25302 15.8789 8.65302C9.88613 9.86635 5.41484 14.493 5.41484 19.9997C5.41484 20.5597 5.47695 21.1063 5.5701 21.6663H5.0267C4.39017 21.6663 3.8623 22.1197 3.8623 22.6663V24.6663C3.8623 26.3197 5.43036 27.6663 7.3555 27.6663H30.6435C32.5686 27.6663 34.1366 26.3197 34.1366 24.6663V22.6663C34.1366 22.1197 33.6088 21.6663 32.9722 21.6663ZM17.8351 7.33301C17.8351 6.78634 18.3629 6.33301 18.9995 6.33301C19.636 6.33301 20.1639 6.78634 20.1639 7.33301C20.1639 7.87967 19.636 8.33301 18.9995 8.33301C18.3629 8.33301 17.8351 7.87967 17.8351 7.33301ZM7.74363 19.9997C7.74363 14.6663 12.7894 10.333 18.9995 10.333C25.2096 10.333 30.2553 14.6663 30.2553 19.9997C30.2553 20.5463 30.1777 21.1063 30.069 21.6663H7.92993C7.82125 21.1063 7.74363 20.5463 7.74363 19.9997ZM31.8079 24.6663C31.8079 25.213 31.28 25.6663 30.6435 25.6663H7.3555C6.71896 25.6663 6.1911 25.213 6.1911 24.6663V23.6663H31.8079V24.6663ZM26.3119 15.4663C26.6535 15.933 26.4827 16.5463 25.9393 16.8397C25.753 16.9463 25.5356 16.9863 25.3338 16.9863C24.9457 16.9863 24.5575 16.813 24.3402 16.5197C23.5329 15.413 22.0114 14.5597 20.3657 14.3063C19.7292 14.213 19.31 13.693 19.4187 13.1463C19.5273 12.5997 20.1328 12.2397 20.7694 12.333C23.0826 12.6797 25.163 13.853 26.3274 15.453L26.3119 15.4663Z" fill="#121212"/>
</svg>
