<svg width="24" height="24" viewBox="0 0 24 24" fill="none" xmlns="http://www.w3.org/2000/svg">
<path d="M20 10H4C3.44772 10 3 10.4477 3 11V19C3 19.5523 3.44772 20 4 20H20C20.5523 20 21 19.5523 21 19V11C21 10.4477 20.5523 10 20 10Z" stroke="black" stroke-width="1.5" stroke-linecap="round" stroke-linejoin="round"/>
<path d="M8 10V6C8 5.46957 8.21071 4.96086 8.58579 4.58579C8.96086 4.21071 9.46957 4 10 4C10.5304 4 11.0391 4.21071 11.4142 4.58579C11.7893 4.96086 12 5.46957 12 6V10" stroke="black" stroke-linecap="round" stroke-linejoin="round"/>
<path d="M12 10V6C12 5.46957 12.2107 4.96086 12.5858 4.58579C12.9609 4.21071 13.4696 4 14 4C14.5304 4 15.0391 4.21071 15.4142 4.58579C15.7893 4.96086 16 5.46957 16 6V10" stroke="black" stroke-linecap="round" stroke-linejoin="round"/>
<path d="M5 20H19" stroke="black" stroke-linecap="round" stroke-linejoin="round"/>
<path d="M7 16C7.55228 16 8 15.5523 8 15C8 14.4477 7.55228 14 7 14C6.44772 14 6 14.4477 6 15C6 15.5523 6.44772 16 7 16Z" stroke="black" stroke-linecap="round" stroke-linejoin="round"/>
<path d="M17 16C17.5523 16 18 15.5523 18 15C18 14.4477 17.5523 14 17 14C16.4477 14 16 14.4477 16 15C16 15.5523 16.4477 16 17 16Z" stroke="black" stroke-linecap="round" stroke-linejoin="round"/>
</svg>
