<svg width="32" height="32" viewBox="0 0 32 32" fill="none" xmlns="http://www.w3.org/2000/svg">
<path d="M24.6663 9.66667H21.6663V8.66667C21.6663 5.54133 19.125 3 15.9997 3C12.8743 3 10.333 5.54133 10.333 8.66667V9.66667H7.33301C5.67967 9.66667 4.33301 11.012 4.33301 12.6667V24C4.33301 27.224 6.10901 29 9.33301 29H22.6663C25.8903 29 27.6663 27.224 27.6663 24V12.6667C27.6663 11.012 26.3197 9.66667 24.6663 9.66667ZM12.333 8.66667C12.333 6.644 13.977 5 15.9997 5C18.0223 5 19.6663 6.644 19.6663 8.66667V9.66667H12.333V8.66667ZM25.6663 24C25.6663 26.1027 24.769 27 22.6663 27H9.33301C7.23034 27 6.33301 26.1027 6.33301 24V12.6667C6.33301 12.1147 6.78234 11.6667 7.33301 11.6667H10.333V14.6667C10.333 15.2187 10.781 15.6667 11.333 15.6667C11.885 15.6667 12.333 15.2187 12.333 14.6667V11.6667H19.6663V14.6667C19.6663 15.2187 20.1143 15.6667 20.6663 15.6667C21.2183 15.6667 21.6663 15.2187 21.6663 14.6667V11.6667H24.6663C25.217 11.6667 25.6663 12.1147 25.6663 12.6667V24Z" fill="#121212"/>
</svg>
