<svg width="32" height="32" viewBox="0 0 32 32" fill="none" xmlns="http://www.w3.org/2000/svg">
<path d="M26.3333 9.82266V9.33332C26.3333 7.31199 24.6893 5.66666 22.6667 5.66666H9.33333C7.31067 5.66666 5.66667 7.31199 5.66667 9.33332V9.82266C4.132 10.2613 3 11.66 3 13.3333V20C3 23.224 4.776 25 8 25H9.66667V26.6667C9.66667 27.2187 10.1147 27.6667 10.6667 27.6667C11.2187 27.6667 11.6667 27.2187 11.6667 26.6667V25H20.3333V26.6667C20.3333 27.2187 20.7813 27.6667 21.3333 27.6667C21.8853 27.6667 22.3333 27.2187 22.3333 26.6667V25H24C27.224 25 29 23.224 29 20V13.3333C29 11.66 27.868 10.2613 26.3333 9.82266ZM9.33333 7.66666H22.6667C23.5853 7.66666 24.3333 8.41466 24.3333 9.33332V9.82266C22.7987 10.2613 21.6667 11.66 21.6667 13.3333V17.6667H10.3333V13.3333C10.3333 11.66 9.20133 10.2613 7.66667 9.82266V9.33332C7.66667 8.41466 8.41467 7.66666 9.33333 7.66666ZM27 20C27 22.1027 26.1027 23 24 23H8C5.89733 23 5 22.1027 5 20V13.3333C5 12.4147 5.748 11.6667 6.66667 11.6667C7.58533 11.6667 8.33333 12.4147 8.33333 13.3333V18.6667C8.33333 19.2187 8.78133 19.6667 9.33333 19.6667H22.6667C23.2187 19.6667 23.6667 19.2187 23.6667 18.6667V13.3333C23.6667 12.4147 24.4147 11.6667 25.3333 11.6667C26.252 11.6667 27 12.4147 27 13.3333V20Z" fill="#121212"/>
</svg>
