<svg width="146" height="138" viewBox="0 0 146 138" fill="none" xmlns="http://www.w3.org/2000/svg">
<path d="M1 36C1 33.7909 2.79086 32 5 32H11C13.2091 32 15 33.7909 15 36V102C15 104.209 13.2091 106 11 106H5C2.79086 106 1 104.209 1 102V36Z" fill="white" stroke="#E3E3E3"/>
<path d="M35 5C35 2.79086 36.7909 1 39 1H107C109.209 1 111 2.79086 111 5V9C111 11.2091 109.209 13 107 13H39C36.7909 13 35 11.2091 35 9V5Z" fill="white" stroke="#E3E3E3"/>
<path d="M23.5 23C23.5 21.067 25.067 19.5 27 19.5H119C120.933 19.5 122.5 21.067 122.5 23V115C122.5 116.933 120.933 118.5 119 118.5H27C25.067 118.5 23.5 116.933 23.5 115V23Z" fill="white"/>
<path d="M23.5 23C23.5 21.067 25.067 19.5 27 19.5H119C120.933 19.5 122.5 21.067 122.5 23V115C122.5 116.933 120.933 118.5 119 118.5H27C25.067 118.5 23.5 116.933 23.5 115V23Z" stroke="#E3E3E3"/>
<path d="M34.304 46V37.348H31.406V36.2H38.616V37.348H35.704V46H34.304ZM41.5737 46V37.782L39.8657 38.216V37.166L42.0917 36.2H43.0017V46H41.5737ZM45.2715 46V44.992C45.9248 44.488 46.5455 43.9793 47.1335 43.466C47.7215 42.9527 48.2441 42.444 48.7015 41.94C49.1681 41.4267 49.5321 40.9273 49.7935 40.442C50.0548 39.9473 50.1855 39.476 50.1855 39.028C50.1855 38.7107 50.1295 38.4167 50.0175 38.146C49.9055 37.8753 49.7281 37.656 49.4855 37.488C49.2428 37.3107 48.9115 37.222 48.4915 37.222C48.0901 37.222 47.7541 37.3107 47.4835 37.488C47.2221 37.6653 47.0215 37.9033 46.8815 38.202C46.7508 38.4913 46.6855 38.8133 46.6855 39.168H45.3275C45.3368 38.496 45.4815 37.9267 45.7615 37.46C46.0415 36.9933 46.4195 36.6387 46.8955 36.396C47.3808 36.1533 47.9221 36.032 48.5195 36.032C49.1448 36.032 49.6861 36.1487 50.1435 36.382C50.6008 36.606 50.9555 36.9373 51.2075 37.376C51.4595 37.8053 51.5855 38.3327 51.5855 38.958C51.5855 39.406 51.4968 39.854 51.3195 40.302C51.1421 40.7407 50.8995 41.17 50.5915 41.59C50.2928 42.01 49.9568 42.416 49.5835 42.808C49.2101 43.1907 48.8228 43.5547 48.4215 43.9C48.0295 44.2453 47.6515 44.558 47.2875 44.838H51.8935V46H45.2715Z" fill="#063455"/>
<path d="M35 129C35 126.791 36.7909 125 39 125H107C109.209 125 111 126.791 111 129V133C111 135.209 109.209 137 107 137H39C36.7909 137 35 135.209 35 133V129Z" fill="white" stroke="#E3E3E3"/>
<path d="M131 36C131 33.7909 132.791 32 135 32H141C143.209 32 145 33.7909 145 36V102C145 104.209 143.209 106 141 106H135C132.791 106 131 104.209 131 102V36Z" fill="white" stroke="#E3E3E3"/>
</svg>
